# xmcd
#
# Track frame offsets: 
#        150
#        11791
#        24736
#        35595
#        47061
#        57496
#        69992
#        77584
#        90082
#        104028
#        109456
#        123083
#        136351
#        147444
#        155491
#        166018
#        178389
#        184800
#        189908
#        202877
#        215111
#
# Disc length: 3044 seconds
#
# Revision: 6
# Processed by: cddbd v1.5.2PL0 Copyright (c) Steve Scherf et al.
# Submitted via: ExactAudioCopy v1.0b3
#
DISCID=2d0be215
DTITLE=Leadbelly - Treasures From The Blues, Disc 4
DYEAR=2008
DGENRE=Blues
TTITLE0=We shall be free
TTITLE1=Keep your hands off her
TTITLE2=Jim Crow blues
TTITLE3=In the evenin' when the Sun goes down
TTITLE4=The bourgeois blues
TTITLE5=The eagle rocks
TTITLE6=Jean Harlow
TTITLE7=Eagle Rock rag
TTITLE8=Mr. Hitler
TTITLE9=Line 'em
TTITLE10=National defence blues
TTITLE11=Tell me baby
TTITLE12=Children's blues (Little children's blues)
TTITLE13=Army life
TTITLE14=The blood done sign my name (Ain't you glad)
TTITLE15=Ella Speed
TTITLE16=There's a man going round taking names
TTITLE17=Juliana Johnson
TTITLE18=On a Christmas Day
TTITLE19=Western plain
TTITLE20=Backwater blues
EXTD=
EXTT0=
EXTT1=
EXTT2=
EXTT3=
EXTT4=
EXTT5=
EXTT6=
EXTT7=
EXTT8=
EXTT9=
EXTT10=
EXTT11=
EXTT12=
EXTT13=
EXTT14=
EXTT15=
EXTT16=
EXTT17=
EXTT18=
EXTT19=
EXTT20=
PLAYORDER=
